<?xml version="1.0" encoding="UTF-8"?>
<svg id="Layer_2" data-name="Layer 2" xmlns="http://www.w3.org/2000/svg" xmlns:xlink="http://www.w3.org/1999/xlink" viewBox="0 0 303.7 44.76">
  <defs>
    <style>
      .cls-1 {
        fill: url(#linear-gradient);
      }

      .cls-1, .cls-2, .cls-3, .cls-4, .cls-5, .cls-6, .cls-7, .cls-8, .cls-9, .cls-10 {
        stroke-width: 0px;
      }

      .cls-2 {
        fill: url(#linear-gradient-4);
      }

      .cls-3 {
        fill: url(#linear-gradient-2);
      }

      .cls-4 {
        fill: url(#linear-gradient-3);
      }

      .cls-5 {
        fill: url(#linear-gradient-8);
      }

      .cls-6 {
        fill: url(#linear-gradient-9);
      }

      .cls-7 {
        fill: url(#linear-gradient-7);
      }

      .cls-8 {
        fill: url(#linear-gradient-5);
      }

      .cls-9 {
        fill: url(#linear-gradient-6);
      }

      .cls-10 {
        fill: #130c49;
      }
    </style>
    <linearGradient id="linear-gradient" x1="39.84" y1="-2385.28" x2="34.01" y2="-2442.48" gradientTransform="translate(0 2433.92)" gradientUnits="userSpaceOnUse">
      <stop offset="0" stop-color="#75be2c"/>
      <stop offset=".86" stop-color="#9dc03b"/>
    </linearGradient>
    <linearGradient id="linear-gradient-2" x1="37.06" y1="-2409.12" x2="37.06" y2="-2390.37" gradientTransform="translate(0 2433.92)" gradientUnits="userSpaceOnUse">
      <stop offset="0" stop-color="#238d37"/>
      <stop offset=".94" stop-color="#35537f"/>
    </linearGradient>
    <linearGradient id="linear-gradient-3" x1="35.07" y1="-2418.83" x2="37.98" y2="-2399.75" gradientTransform="translate(0 2433.92)" gradientUnits="userSpaceOnUse">
      <stop offset="0" stop-color="#67d84d"/>
      <stop offset="1" stop-color="#348522"/>
    </linearGradient>
    <linearGradient id="linear-gradient-4" x1="64.03" y1="-2433.87" x2="64.03" y2="-2400.61" gradientTransform="translate(0 2433.92)" gradientUnits="userSpaceOnUse">
      <stop offset="0" stop-color="#e4d00a"/>
      <stop offset=".56" stop-color="#c4d132"/>
    </linearGradient>
    <linearGradient id="linear-gradient-5" x1="10.04" y1="-2433.87" x2="10.04" xlink:href="#linear-gradient-4"/>
    <linearGradient id="linear-gradient-6" x1="56.43" y1="-2400.25" x2="56.43" y2="-2389.16" gradientTransform="translate(0 2433.92)" gradientUnits="userSpaceOnUse">
      <stop offset="0" stop-color="#8ab11b"/>
      <stop offset="1" stop-color="#6eaf02"/>
    </linearGradient>
    <linearGradient id="linear-gradient-7" x1="64.51" y1="-2413.64" x2="62.18" y2="-2394.97" xlink:href="#linear-gradient"/>
    <linearGradient id="linear-gradient-8" x1="17.64" y1="-2400.21" x2="17.64" y2="-2389.17" xlink:href="#linear-gradient-6"/>
    <linearGradient id="linear-gradient-9" x1="11.82" y1="-2413.55" x2="9.53" y2="-2391.1" xlink:href="#linear-gradient"/>
  </defs>
  <g id="Layer_1-2" data-name="Layer 1">
    <g>
      <g>
        <path class="cls-1" d="M71.67,7.95L58.85.5c-2.15-1.25-4.85.31-4.85,2.79v18.84l-9.1-5.24c-4.88-2.81-10.88-2.8-15.74.02l-9.06,5.24V3.28c0-2.49-2.69-4.04-4.85-2.79L2.4,7.94c-1.49.86-2.4,2.46-2.4,4.18v17.71c0,1.24.31,2.42.88,3.46h0c.58,1.07,1.42,1.98,2.48,2.66l6.61,4.22,5.06,3.22c3.04,1.93,6.95,1.78,9.83-.39l.38-.3s.07-.06.11-.08l7.63-5.82c2.23-1.71,5.88-1.71,8.12,0l7.61,5.8s.03.02.04.03l.47.37c2.87,2.17,6.79,2.32,9.83.39l5.06-3.23,6.63-4.22c1.04-.67,1.88-1.59,2.46-2.64s.89-2.23.89-3.47V12.13h0c0-1.72-.91-3.32-2.4-4.18h.01Z"/>
        <path class="cls-3" d="M54.1,33.62v6.36c0,1.96-1.41,3.56-3.11,3.56-.67,0-1.51-.34-2.29-.93l-7.61-5.8c-2.23-1.71-5.88-1.71-8.12,0l-7.63,5.82c-.76.57-1.25.74-1.97.74-1.77.02-3.35-1.31-3.35-3.39v-6.34l10.9-7.04c3.74-2.41,8.52-2.41,12.25,0l10.92,6.88v.13h0Z"/>
        <path class="cls-4" d="M54,22.13l.03,11.59-10.84-6.93c-3.73-2.39-8.51-2.39-12.25,0l-10.87,6.94.02-11.58,9.07-5.25c4.86-2.82,10.86-2.82,15.74-.02l9.1,5.24h0Z"/>
        <path class="cls-2" d="M74.07,12.13v17.7c0,1.25-.31,2.42-.89,3.47l-19.19-11.17V3.28c0-2.49,2.7-4.04,4.85-2.79l12.82,7.46c1.49.86,2.4,2.46,2.4,4.18h0Z"/>
        <path class="cls-8" d="M20.08,3.28v18.87L.88,33.31C.31,32.26,0,31.08,0,29.84V12.13C0,10.41.91,8.81,2.4,7.95L15.23.49c2.15-1.25,4.85.31,4.85,2.79h0Z"/>
        <path class="cls-9" d="M50.72,43.32c1.7,0,3.3-1.34,3.3-3.28v-6.36s10.13,6.47,10.13,6.47l-5.12,3.26c-3.04,1.93-6.95,1.79-9.83-.39l-.48-.38c.72.49,1.33.68,2,.68h0Z"/>
        <path class="cls-7" d="M73.18,33.31c-.58,1.05-1.42,1.97-2.46,2.64l-6.63,4.22-10.08-6.45-.03-11.59,19.19,11.18h0Z"/>
        <path class="cls-5" d="M20.08,40.03c0,1.94,1.61,3.47,3.3,3.28.75-.09,1.34-.2,1.94-.66l-.46.36c-2.87,2.16-6.79,2.32-9.83.39l-5.06-3.23h0s10.11-6.46,10.11-6.46v6.31h0Z"/>
        <path class="cls-6" d="M20.08,22.15v11.57l-10.11,6.45h0s-6.61-4.2-6.61-4.2c-1.05-.67-1.9-1.59-2.48-2.66l19.19-11.16h0Z"/>
      </g>
      <g>
        <path class="cls-10" d="M302.32,22.89c.91-.8,1.38-2.16,1.38-4.04,0-1.16-.28-2.34-.82-3.51-.54-1.15-1.33-2.21-2.33-3.15-1.01-.94-2.24-1.69-3.67-2.22-1.4-.58-3.01-.87-4.79-.87-2.6,0-4.95.58-6.98,1.72-2,1.11-3.59,2.65-4.74,4.59-1.14,1.93-1.73,4.17-1.73,6.63,0,1.85.31,3.6.91,5.21s1.5,3.06,2.65,4.32c1.18,1.21,2.63,2.19,4.3,2.91,1.68.71,3.61,1.07,5.74,1.07,1.91,0,3.63-.22,5.12-.64,1.53-.43,2.75-.96,3.62-1.57.94-.67,1.41-1.3,1.41-1.91,0-.31-.04-.61-.12-.88s-.23-.57-.46-.88c-.21-.41-.51-.69-.9-.82-.35-.17-.72-.21-1.11-.12-.31.08-.63.21-.97.4,0,0-.01,0-.02.01-.27.17-.59.34-.95.5-.37.17-.82.34-1.33.51-.5.17-1.1.3-1.78.41-.68.1-1.51.16-2.47.16-1.27,0-2.57-.29-3.84-.86-1.24-.57-2.28-1.38-3.11-2.41-.72-.96-1.1-2.11-1.13-3.42h14.79c1.3,0,2.41-.38,3.32-1.13h.01ZM298.65,18.9c0,.6-.12.99-.34,1.11-.18.1-.55.22-1.3.22h-12.8c.03-1.11.36-2.12.98-3.01.69-.99,1.65-1.78,2.85-2.35,1.24-.6,2.62-.91,4.09-.91,1.27,0,2.4.24,3.36.7.99.46,1.77,1.08,2.33,1.84.55.71.82,1.5.82,2.4h0Z"/>
        <path class="cls-10" d="M273.17,9.58c-.38-.12-.83-.17-1.34-.17l-4.59.07V2.73c0-.54-.06-.98-.17-1.34-.13-.45-.41-.79-.84-1.01-.41-.25-.95-.37-1.68-.37s-1.27.13-1.65.38c-.39.23-.65.56-.77,1-.12.39-.17.85-.17,1.39v6.71l-2.35-.03h0c-.8,0-1.4.22-1.78.66-.37.43-.56,1.07-.56,1.95s.14,1.55.43,1.97c0,0,.01.01.01.02.35.45.95.67,1.79.67l2.46-.03v11.81c0,1.64.16,3.04.48,4.18.33,1.13.89,2.07,1.66,2.79.77.71,1.74,1.25,2.91,1.59,1.17.33,2.61.5,4.26.5.48,0,.91-.06,1.28-.17.48-.1.83-.35,1.05-.75.24-.42.36-.98.36-1.74,0-.71-.1-1.24-.3-1.62-.22-.4-.55-.68-.99-.81-.38-.12-.87-.18-1.46-.18-.78,0-1.45-.04-1.99-.11-.48-.06-.88-.22-1.17-.45-.26-.24-.47-.6-.62-1.06-.13-.54-.2-1.27-.2-2.16v-11.8l4.65.07c.52,0,.97-.06,1.36-.18.44-.14.77-.41.99-.83.2-.41.3-.97.3-1.71s-.12-1.3-.36-1.68c-.22-.44-.56-.72-1-.81h0v-.02Z"/>
        <path class="cls-10" d="M252.15,9.49c-.35-.26-.87-.39-1.62-.39-.89,0-1.57.21-2.01.62-.43.39-.62,1.04-.58,1.93l.06,1.16c-.45-.5-.93-.97-1.46-1.39-.8-.7-1.77-1.26-2.88-1.66-1.12-.44-2.48-.66-4.05-.66-1.68,0-3.3.35-4.8,1.04-1.46.69-2.78,1.65-3.92,2.84-1.14,1.2-2.04,2.62-2.69,4.21-.61,1.56-.91,3.25-.91,5.03s.31,3.53.91,5.14c.64,1.59,1.53,3.02,2.63,4.26,1.14,1.24,2.47,2.21,3.93,2.9,1.5.69,3.14,1.04,4.85,1.04s3.26-.28,4.49-.83c1.21-.58,2.21-1.25,2.98-1.99.35-.36.66-.69.92-1.01l-.11,1.43v.07c.08.75.31,1.33.68,1.7,0,0,.01.01.02.01.42.39,1.04.57,1.91.57.73,0,1.28-.12,1.65-.37.39-.23.65-.58.78-1.06.11-.42.17-.9.17-1.42V12.13c0-.6-.06-1.11-.17-1.53-.13-.47-.38-.84-.76-1.1h-.01ZM247.68,22.29c0,1.57-.34,2.98-1,4.2-.63,1.18-1.52,2.14-2.66,2.85-1.09.7-2.31,1.06-3.63,1.06-1.57,0-2.97-.34-4.16-1.01-1.16-.71-2.09-1.67-2.75-2.85-.66-1.22-1-2.61-1-4.14s.34-2.97,1-4.19c.66-1.21,1.58-2.19,2.71-2.91,1.16-.74,2.54-1.11,4.1-1.11,1.32,0,2.54.36,3.64,1.07,1.12.67,2.03,1.63,2.7,2.86.7,1.18,1.05,2.59,1.05,4.18h0Z"/>
        <g>
          <path class="cls-10" d="M221.75,9.43c-.38-.25-.91-.37-1.65-.37s-1.32.1-1.74.31c-.4.22-.66.56-.79.99-.12.38-.17.84-.17,1.36v21.12c0,.52.06.98.17,1.36.13.44.4.77.78.99.41.25.96.37,1.7.37s1.27-.1,1.62-.3c.44-.22.72-.56.86-1,.12-.38.17-.84.17-1.36V11.83c0-.56-.06-1.03-.17-1.42-.13-.44-.39-.77-.78-.99h0Z"/>
          <path class="cls-10" d="M221.95.36c-.44-.24-1.04-.36-1.84-.36s-1.44.12-1.88.35c-.47.22-.79.59-.95,1.09-.15.42-.23.94-.23,1.54s.06,1.11.17,1.56c0,.01,0,.02,0,.03.17.5.48.9.93,1.18,0,0,.02.01.02.01.44.24,1.06.36,1.89.36s1.45-.12,1.89-.36c.47-.26.77-.62.9-1.1.15-.45.23-.98.23-1.57s-.08-1.12-.22-1.57c-.13-.51-.43-.9-.9-1.15h0Z"/>
        </g>
        <path class="cls-10" d="M211.2,9.53c-1.1-.55-1.95-.61-2.51-.18-.5.38-.95,1-1.37,1.87l-7.3,17.28-7.46-17.81c-.39-.9-.89-1.43-1.49-1.56-.57-.16-1.25-.05-2.02.34-.85.43-1.38.89-1.62,1.41-.26.52-.18,1.24.26,2.19l9.66,21.08s0,.02.01.02c.28.52.63.88,1.05,1.09.43.2.97.29,1.61.29.68,0,1.25-.12,1.68-.36.45-.25.79-.62.98-1.1l9.61-20.71c.34-.71.5-1.37.5-1.98,0-.74-.54-1.37-1.6-1.88h0Z"/>
        <path class="cls-10" d="M182.18,9.49c-.35-.26-.87-.39-1.62-.39-.89,0-1.57.21-2.01.62-.43.39-.62,1.04-.58,1.93l.06,1.16c-.45-.5-.93-.97-1.46-1.39-.8-.7-1.77-1.26-2.88-1.66-1.12-.44-2.48-.66-4.05-.66-1.68,0-3.3.35-4.8,1.04-1.46.69-2.78,1.65-3.92,2.84-1.14,1.2-2.04,2.62-2.69,4.21-.61,1.56-.91,3.25-.91,5.03s.31,3.53.91,5.14c.64,1.59,1.53,3.02,2.63,4.26,1.14,1.24,2.47,2.21,3.93,2.9,1.5.69,3.14,1.04,4.85,1.04s3.26-.28,4.49-.83c1.21-.58,2.21-1.25,2.98-1.99.35-.36.66-.69.92-1.01l-.11,1.43v.07c.08.75.31,1.33.68,1.7,0,0,.01.01.02.01.42.39,1.04.57,1.91.57.73,0,1.27-.12,1.65-.37.39-.23.65-.58.78-1.06.11-.42.17-.9.17-1.42V12.13c0-.6-.06-1.11-.17-1.53-.13-.47-.38-.84-.76-1.1h-.01ZM177.71,22.29c0,1.57-.34,2.98-1,4.2-.63,1.18-1.52,2.14-2.65,2.85-1.09.7-2.31,1.06-3.63,1.06-1.57,0-2.97-.34-4.16-1.01-1.16-.71-2.09-1.67-2.75-2.85-.66-1.22-1-2.61-1-4.14s.34-2.98,1-4.19c.66-1.21,1.57-2.19,2.71-2.91,1.16-.74,2.54-1.11,4.1-1.11,1.32,0,2.54.36,3.64,1.07,1.12.67,2.03,1.63,2.7,2.86.7,1.18,1.05,2.59,1.05,4.18h0Z"/>
        <path class="cls-10" d="M149.92,12.19c-1.01-.94-2.24-1.69-3.67-2.22-1.4-.58-3.01-.87-4.79-.87-2.6,0-4.95.58-6.98,1.72-2,1.11-3.59,2.65-4.74,4.59-1.14,1.93-1.73,4.17-1.73,6.63,0,1.85.31,3.61.91,5.21.61,1.61,1.49,3.06,2.65,4.32,1.18,1.21,2.63,2.19,4.3,2.91,1.68.71,3.61,1.07,5.74,1.07,1.91,0,3.63-.22,5.12-.64,1.53-.43,2.75-.96,3.62-1.57.94-.67,1.41-1.3,1.41-1.91,0-.31-.04-.61-.12-.88-.08-.28-.24-.57-.46-.88-.21-.41-.51-.69-.9-.82-.35-.17-.72-.21-1.11-.12-.31.08-.63.21-.97.4,0,0-.01,0-.02.01-.26.17-.58.34-.95.5-.37.17-.82.34-1.33.51-.5.17-1.1.3-1.78.41-.68.1-1.51.16-2.47.16-1.27,0-2.57-.29-3.84-.86-1.24-.57-2.28-1.38-3.11-2.41-.72-.96-1.1-2.11-1.13-3.42h14.79c1.3,0,2.41-.38,3.32-1.13.91-.8,1.38-2.16,1.38-4.04,0-1.16-.28-2.34-.82-3.51-.54-1.15-1.33-2.21-2.33-3.15h.01ZM148.02,18.9c0,.6-.12.99-.34,1.11-.18.1-.55.22-1.3.22h-12.8c.03-1.11.36-2.12.98-3.01.69-.99,1.65-1.78,2.85-2.35,1.24-.6,2.62-.91,4.09-.91,1.27,0,2.4.24,3.36.7.99.46,1.77,1.08,2.33,1.84.55.71.82,1.5.82,2.4h0Z"/>
        <path class="cls-10" d="M123.81,9.39c-.92-.35-1.69-.38-2.27-.09-.53.29-.96.89-1.31,1.82l-5.59,14.97-5.15-14.9c-.08-.32-.24-.63-.48-.91-.2-.28-.48-.52-.83-.72-.34-.21-.8-.31-1.43-.31-.54,0-1,.11-1.37.31-.36.21-.65.48-.86.82-.15.26-.28.55-.39.85l-5.2,14.76-5.6-15.13c-.32-.87-.75-1.41-1.31-1.59-.54-.21-1.25-.14-2.15.21-.57.19-1,.42-1.32.7,0,0-.01.01-.02.02-.3.3-.47.68-.52,1.11v.04c0,.39.09.86.28,1.43,0,0,0,.01,0,.02l8.06,20.76c.08.33.19.65.34.95.01.02.02.03.03.05.21.29.48.53.79.68.36.21.84.31,1.42.31.54,0,.96-.08,1.29-.24.35-.14.61-.38.79-.73.19-.3.35-.68.49-1.11l5.29-15.29,5.25,15.31c.15.36.31.71.49,1.04,0,0,0,.01.01.02.21.34.48.59.82.76.33.17.76.25,1.31.25s.98-.1,1.31-.31c.37-.17.64-.41.81-.71.19-.3.34-.61.45-.9l8.07-20.78c.39-.95.44-1.69.14-2.25-.29-.54-.84-.95-1.64-1.22h-.01Z"/>
      </g>
    </g>
  </g>
</svg>